<?xml version="1.0" encoding="UTF-8" standalone="no"?>
<!DOCTYPE svg PUBLIC "-//W3C//DTD SVG 1.1//EN" "http://www.w3.org/Graphics/SVG/1.1/DTD/svg11.dtd">
<svg width="100%" height="100%" viewBox="0 0 2429 1771" version="1.1" xmlns="http://www.w3.org/2000/svg" xmlns:xlink="http://www.w3.org/1999/xlink" xml:space="preserve" xmlns:serif="http://www.serif.com/" style="fill-rule:evenodd;clip-rule:evenodd;stroke-linecap:round;stroke-linejoin:round;stroke-miterlimit:1.5;">
    <g transform="matrix(1,0,0,1,-60.65,-1067.58)">
        <g transform="matrix(1,0,0,1,0,283.081)">
            <g transform="matrix(1,0,0,1,0,-283.081)">
                <path d="M162.764,2831.74C187.716,2833.14 210.905,2825.22 237.248,2811.54C259.41,2800.03 283.805,2784.45 313.362,2766.89C325.427,2761.8 337.901,2756.99 350.695,2752.6C389.096,2739.43 430.377,2730.11 472.113,2728.95C544.647,2726.93 646.621,2774.69 665.88,2746.07C678.563,2727.22 664.393,2694.85 645.817,2662.64C642.665,2657.17 639.387,2651.71 636.091,2646.32C628.634,2648 621.317,2649.71 614.137,2651.45C616.184,2655.48 618.032,2659.41 619.612,2663.2C626.759,2680.33 628.408,2694.56 618.06,2702.27C592.843,2721.05 501.311,2707.59 419.778,2717.61C412.416,2718.52 405.135,2719.62 397.992,2720.95C404.352,2717.87 410.904,2714.78 417.659,2711.69C467.457,2688.95 528.298,2666.35 604.907,2647.27C615.962,2644.52 627.346,2641.84 639.072,2639.25C655.232,2635.67 672.041,2632.25 689.539,2629.02C702.459,2626.64 715.754,2624.35 729.438,2622.18C720.99,2618 712.726,2613.87 704.715,2609.89C707.591,2608.66 709.935,2607.56 712.681,2606.88C724.688,2612.86 737.216,2619.11 750.047,2625.36C813.001,2656.03 883.246,2686.78 935.115,2686.3C954.674,2686.12 973.998,2681.62 993.258,2674.33C1019.17,2664.53 1044.97,2649.69 1071.07,2633.58C1069.33,2633.08 1067.56,2632.6 1065.77,2632.12C1067.47,2630.79 1069.32,2629.2 1071.62,2627.25C1076.66,2628.65 1081.48,2630.11 1086.07,2631.59C1125.81,2644.47 1148.58,2660.05 1153.41,2671.99C1161.3,2691.48 1151.28,2728.53 1134.37,2774.38C1165.71,2757.42 1204.42,2674.74 1204.36,2647.88C1204.34,2639.76 1168.08,2626.82 1111.65,2615.56C1105.24,2614.28 1098.57,2613.02 1091.66,2611.8C1093.91,2610.23 1096.35,2608.56 1099.01,2606.8C1102.9,2607.51 1106.7,2608.24 1110.42,2608.97C1129.52,2597.12 1148.88,2585.57 1168.66,2575.75C1202.61,2558.9 1237.79,2547.11 1275,2547.49C1312.21,2547.11 1347.39,2558.9 1381.34,2575.75C1401.12,2585.57 1420.48,2597.12 1439.58,2608.97C1443.3,2608.24 1447.1,2607.51 1450.99,2606.8C1453.65,2608.56 1456.09,2610.23 1458.34,2611.8C1451.43,2613.02 1444.76,2614.28 1438.35,2615.56C1381.92,2626.82 1345.66,2639.76 1345.64,2647.88C1345.58,2674.74 1384.29,2757.42 1415.63,2774.38C1398.72,2728.53 1388.7,2691.48 1396.59,2671.99C1401.42,2660.05 1424.19,2644.47 1463.93,2631.59C1468.52,2630.11 1473.34,2628.65 1478.38,2627.25C1480.68,2629.2 1482.53,2630.79 1484.23,2632.12C1482.44,2632.6 1480.67,2633.08 1478.93,2633.58C1505.03,2649.69 1530.83,2664.53 1556.74,2674.33C1576,2681.62 1595.33,2686.12 1614.88,2686.3C1666.75,2686.78 1737,2656.03 1799.95,2625.36C1812.78,2619.11 1825.31,2612.86 1837.32,2606.88C1840.07,2607.56 1842.41,2608.66 1845.29,2609.89C1837.27,2613.87 1829.01,2618 1820.56,2622.18C1834.25,2624.35 1847.54,2626.64 1860.46,2629.02C1877.96,2632.25 1894.77,2635.67 1910.93,2639.25C1922.65,2641.84 1934.04,2644.52 1945.09,2647.27C2021.7,2666.35 2082.54,2688.95 2132.34,2711.69C2139.1,2714.78 2145.65,2717.87 2152.01,2720.95C2144.87,2719.62 2137.58,2718.52 2130.22,2717.61C2048.69,2707.59 1957.16,2721.05 1931.94,2702.27C1921.59,2694.56 1923.24,2680.33 1930.39,2663.2C1931.97,2659.41 1933.82,2655.48 1935.86,2651.45C1928.68,2649.71 1921.37,2648 1913.91,2646.32C1910.61,2651.71 1907.34,2657.17 1904.18,2662.64C1885.61,2694.85 1871.44,2727.22 1884.12,2746.07C1903.38,2774.69 2005.35,2726.93 2077.89,2728.95C2119.62,2730.11 2160.9,2739.43 2199.3,2752.6C2212.1,2756.99 2224.57,2761.8 2236.64,2766.89C2266.2,2784.45 2290.59,2800.03 2312.75,2811.54C2339.1,2825.22 2362.28,2833.14 2387.24,2831.74C2390.92,2831.54 2394.5,2830.56 2397.95,2828.83C2420.92,2817.4 2438.85,2773.3 2442.82,2706.1C2447.32,2706.03 2453.05,2706.29 2463.26,2705.69C2476.77,2704.89 2482.39,2705.76 2489.35,2705.83L2489.35,2838.22L60.65,2838.22L60.65,2705.83C67.606,2705.76 73.227,2704.89 86.738,2705.69C96.949,2706.29 102.682,2706.03 107.18,2706.1C111.15,2773.3 129.08,2817.4 152.047,2828.83C155.5,2830.56 159.081,2831.54 162.764,2831.74Z" style="fill:white;"/>
            </g>
            <path d="M1275,2264.41C1237.79,2264.03 1202.61,2275.82 1168.66,2292.67C1148.88,2302.49 1129.52,2314.03 1110.42,2325.89C1104.63,2324.75 1098.62,2323.62 1092.44,2322.53C1117.36,2309.24 1142.04,2295.35 1165.91,2283.21C1205.32,2263.18 1242.52,2247.93 1275,2248.09C1307.48,2247.93 1344.68,2263.18 1384.09,2283.21C1407.96,2295.35 1432.63,2309.24 1457.56,2322.53C1451.37,2323.62 1445.37,2324.75 1439.57,2325.89C1420.47,2314.03 1401.11,2302.49 1381.33,2292.67C1347.39,2275.82 1312.2,2264.03 1275,2264.41ZM590.423,2327.33C568.281,2290.74 548.215,2255.83 573.769,2246.84C604.653,2235.96 655.888,2276.2 728.646,2314.74C744.065,2322.91 760.45,2331 777.813,2338.52C820.948,2357.18 870.117,2372.28 925.492,2376.09C945.191,2377.45 965.629,2374.5 986.462,2368.7C1006.86,2363.01 1027.63,2354.6 1048.46,2344.8C1056.45,2346.59 1063.99,2348.49 1071.07,2350.49C1044.97,2366.61 1019.17,2381.45 993.258,2391.25C973.998,2398.53 954.674,2403.04 935.115,2403.22C883.246,2403.69 813.001,2372.95 750.047,2342.28C733.572,2334.25 717.595,2326.23 702.579,2318.77C652.188,2293.76 612.599,2275.12 601.198,2284.05C594.573,2289.24 600.257,2303.31 610.723,2321.67C613.042,2325.74 615.595,2330.02 618.301,2334.46C611.291,2335.92 604.336,2337.41 597.436,2338.91C595.109,2335.05 592.755,2331.18 590.423,2327.33ZM823.468,2327.54C808.974,2328.72 794.027,2330.24 778.633,2332.12C768.379,2327.65 758.472,2322.97 748.907,2318.21C750.538,2317.99 752.17,2317.77 753.805,2317.56C777.111,2314.5 800.876,2312.47 824.703,2311.29C913.58,2306.89 1003.3,2314.44 1073.19,2325.6C1086.82,2327.78 1099.69,2330.09 1111.65,2332.48C1168.08,2343.74 1204.34,2356.67 1204.36,2364.8C1204.42,2391.66 1165.71,2474.34 1134.37,2491.3C1151.28,2445.45 1161.3,2408.4 1153.41,2388.91C1148.58,2376.97 1125.81,2361.39 1086.07,2348.51C1074.69,2344.83 1061.93,2341.36 1047.8,2338.27C993.091,2326.29 917.885,2319.84 823.468,2327.54ZM176.291,2416.75C178.105,2418.75 179.974,2420.37 181.883,2421.62C195.571,2430.55 216.889,2432.46 244.778,2429.59C247.346,2429.33 281.845,2423.91 284.528,2423.38C360.371,2408.44 467.802,2373.83 594.414,2345.96C605.561,2343.51 616.856,2341.1 628.291,2338.77C644.394,2335.49 660.774,2332.35 677.409,2329.39C685.416,2327.97 693.483,2326.59 701.606,2325.26C710.582,2329.72 719.892,2334.37 729.438,2339.1C715.754,2341.27 702.459,2343.56 689.539,2345.94C672.041,2349.17 655.232,2352.59 639.072,2356.16C627.346,2358.76 615.962,2361.44 604.907,2364.19C528.298,2383.26 467.457,2405.87 417.659,2428.61C410.904,2431.7 404.352,2434.78 397.992,2437.87C405.135,2436.54 412.416,2435.44 419.778,2434.53C501.311,2424.5 592.843,2437.97 618.06,2419.18C628.408,2411.48 626.759,2397.25 619.612,2380.12C618.032,2376.33 616.184,2372.4 614.137,2368.37C621.317,2366.62 628.634,2364.91 636.091,2363.24C639.387,2368.63 642.665,2374.09 645.817,2379.55C664.393,2411.76 678.563,2444.14 665.88,2462.99C646.621,2491.61 544.647,2443.85 472.113,2445.87C430.377,2447.02 389.096,2456.35 350.695,2469.52C337.901,2473.91 325.427,2478.72 313.362,2483.81C283.805,2501.36 259.41,2516.95 237.248,2528.46C210.905,2542.14 187.716,2550.05 162.764,2548.66C133.665,2547.04 110.913,2496.98 107.675,2413.82C106.721,2389.34 113.24,2368.33 119.921,2359.74C126.601,2351.15 139.584,2347.74 147.756,2362.28C167.772,2397.9 166.061,2407.8 176.291,2416.75ZM1959.55,2327.33C1957.22,2331.18 1954.87,2335.05 1952.54,2338.91C1945.64,2337.41 1938.68,2335.92 1931.68,2334.46C1934.38,2330.02 1936.93,2325.74 1939.25,2321.67C1949.72,2303.31 1955.4,2289.24 1948.78,2284.05C1937.38,2275.12 1897.79,2293.76 1847.4,2318.77C1832.38,2326.23 1816.41,2334.25 1799.93,2342.28C1736.98,2372.95 1666.74,2403.69 1614.87,2403.22C1595.32,2403.04 1575.99,2398.53 1556.73,2391.25C1530.82,2381.45 1505.02,2366.61 1478.92,2350.49C1486,2348.49 1493.54,2346.59 1501.53,2344.8C1522.36,2354.6 1543.13,2363.01 1563.53,2368.7C1584.36,2374.5 1604.8,2377.45 1624.5,2376.09C1679.87,2372.28 1729.04,2357.18 1772.17,2338.52C1789.53,2331 1805.92,2322.91 1821.33,2314.74C1894.09,2276.2 1945.32,2235.96 1976.21,2246.84C2001.76,2255.83 1981.69,2290.74 1959.55,2327.33ZM1726.52,2327.54C1632.1,2319.84 1556.9,2326.29 1502.2,2338.27C1488.06,2341.36 1475.3,2344.83 1463.93,2348.51C1424.18,2361.39 1401.42,2376.97 1396.58,2388.91C1388.7,2408.4 1398.71,2445.45 1415.63,2491.3C1384.29,2474.34 1345.58,2391.66 1345.64,2364.8C1345.66,2356.67 1381.92,2343.74 1438.34,2332.48C1450.31,2330.09 1463.17,2327.78 1476.8,2325.6C1546.69,2314.44 1636.41,2306.89 1725.28,2311.29C1749.11,2312.47 1772.87,2314.5 1796.18,2317.56C1797.81,2317.77 1799.44,2317.99 1801.07,2318.21C1791.51,2322.97 1781.6,2327.65 1771.35,2332.12C1755.96,2330.24 1741.01,2328.72 1726.52,2327.54ZM2373.67,2416.75C2383.9,2407.8 2382.19,2397.9 2402.2,2362.28C2410.38,2347.74 2423.36,2351.15 2430.04,2359.74C2436.72,2368.33 2443.24,2389.34 2442.28,2413.82C2439.05,2496.98 2416.3,2547.04 2387.2,2548.66C2362.24,2550.05 2339.06,2542.14 2312.72,2528.46C2290.55,2516.95 2266.16,2501.36 2236.6,2483.81C2224.54,2478.72 2212.07,2473.91 2199.27,2469.52C2160.87,2456.35 2119.59,2447.02 2077.86,2445.87C2005.33,2443.85 1903.36,2491.61 1884.1,2462.99C1871.42,2444.14 1885.59,2411.76 1904.16,2379.55C1907.31,2374.09 1910.59,2368.63 1913.89,2363.24C1921.34,2364.91 1928.66,2366.62 1935.84,2368.37C1933.79,2372.4 1931.94,2376.33 1930.37,2380.12C1923.22,2397.25 1921.57,2411.48 1931.92,2419.18C1957.13,2437.97 2048.66,2424.5 2130.19,2434.53C2137.55,2435.44 2144.84,2436.54 2151.98,2437.87C2145.62,2434.78 2139.07,2431.7 2132.31,2428.61C2082.51,2405.87 2021.68,2383.26 1945.07,2364.19C1934.01,2361.44 1922.63,2358.76 1910.9,2356.16C1894.75,2352.59 1877.94,2349.17 1860.44,2345.94C1847.52,2343.56 1834.23,2341.27 1820.54,2339.1C1830.09,2334.37 1839.4,2329.72 1848.37,2325.26C1856.5,2326.59 1864.56,2327.97 1872.57,2329.39C1889.2,2332.35 1905.58,2335.49 1921.69,2338.77C1933.12,2341.1 1944.42,2343.51 1955.56,2345.96C2082.17,2373.83 2189.6,2408.44 2265.44,2423.38C2268.12,2423.91 2302.62,2429.33 2305.19,2429.59C2333.07,2432.46 2354.39,2430.55 2368.08,2421.62C2369.99,2420.37 2371.86,2418.75 2373.67,2416.75Z" style="fill:rgb(45,19,8);"/>
        </g>
    </g>
</svg>
